<?xml version="1.0" standalone="no"?>
<!DOCTYPE svg PUBLIC "-//W3C//DTD SVG 20010904//EN"
 "http://www.w3.org/TR/2001/REC-SVG-20010904/DTD/svg10.dtd">
<svg version="1.0" xmlns="http://www.w3.org/2000/svg"
 width="512.000000pt" height="512.000000pt" viewBox="0 0 512.000000 512.000000"
 preserveAspectRatio="xMidYMid meet">
<metadata>
Created by potrace 1.14, written by Peter Selinger 2001-2017
</metadata>
<g transform="translate(0.000000,512.000000) scale(0.100000,-0.100000)"
fill="#000000" stroke="none">
<path d="M4153 5106 c-12 -9 -326 -320 -697 -692 -699 -699 -693 -693 -667
-743 8 -14 0 -28 -43 -70 -46 -45 -57 -51 -73 -42 -11 5 -30 9 -43 8 -15 -1
-419 -398 -1323 -1302 -1509 -1508 -1356 -1326 -1222 -1451 316 -296 720 -538
1107 -663 123 -39 311 -88 375 -97 26 -3 50 -8 53 -9 6 -3 116 -19 225 -32
129 -15 571 -8 670 11 11 2 43 7 70 10 176 24 504 111 638 170 18 7 57 24 87
36 30 12 100 45 155 72 635 317 1152 869 1423 1520 38 92 39 111 8 143 l-25
25 23 66 c20 59 25 67 50 70 16 2 36 10 46 19 27 25 90 297 106 460 3 33 9 92
14 130 8 72 5 500 -3 545 -5 23 -14 83 -23 155 -2 17 -6 41 -9 55 -3 14 -8 41
-11 60 -3 19 -7 43 -10 52 -3 9 -7 26 -9 39 -17 88 -80 294 -128 419 -131 339
-359 700 -613 967 -75 79 -112 96 -151 69z"/>
</g>
</svg>
