<?xml version="1.0" encoding="utf-8"?>
<!-- Generator: Adobe Illustrator 16.0.0, SVG Export Plug-In . SVG Version: 6.00 Build 0)  -->
<!DOCTYPE svg PUBLIC "-//W3C//DTD SVG 1.1//EN" "http://www.w3.org/Graphics/SVG/1.1/DTD/svg11.dtd" [
	<!ENTITY ns_extend "http://ns.adobe.com/Extensibility/1.0/">
	<!ENTITY ns_ai "http://ns.adobe.com/AdobeIllustrator/10.0/">
	<!ENTITY ns_graphs "http://ns.adobe.com/Graphs/1.0/">
	<!ENTITY ns_vars "http://ns.adobe.com/Variables/1.0/">
	<!ENTITY ns_imrep "http://ns.adobe.com/ImageReplacement/1.0/">
	<!ENTITY ns_sfw "http://ns.adobe.com/SaveForWeb/1.0/">
	<!ENTITY ns_custom "http://ns.adobe.com/GenericCustomNamespace/1.0/">
	<!ENTITY ns_adobe_xpath "http://ns.adobe.com/XPath/1.0/">
]>
<svg version="1.1" id="图层_1" xmlns:x="&ns_extend;" xmlns:i="&ns_ai;" xmlns:graph="&ns_graphs;"
	 xmlns="http://www.w3.org/2000/svg" xmlns:xlink="http://www.w3.org/1999/xlink" x="0px" y="0px" width="595.28px"
	 height="217.489px" viewBox="0 0 595.28 217.489" enable-background="new 0 0 595.28 217.489" xml:space="preserve">
<metadata>
	<sfw  xmlns="&ns_sfw;">
		<slices></slices>
		<sliceSourceBounds  y="-379.686" x="39.903" height="164.906" width="505.458" bottomLeftOrigin="true"></sliceSourceBounds>
	</sfw>
</metadata>
<g>
	<path fill-rule="evenodd" clip-rule="evenodd" fill="#023886" d="M84.505,93.846c15.8-0.136,27.471-4.983,31.292,6.214
		c1.161,0.956,2.662,0.445,3.037-0.647c-0.102-1.093,3.515-16.456,15.903-4.883c-2.594,1.639-8.225,2.288-4.402,6.828
		c4.846,0.342,8.36-8.228,17.574-6.828l12.183,0.649c-2.149,5.394-10.715,3.993-12.524,7.477l10.169,0.647
		c-4.197,3.757-9.691,5.294-14.537,5.497c-0.41,0.649-0.512,1.299,0.648,1.945l7.781,0.206c-1.877,5.566-7.576,7.17-11.671,7.581
		c-0.375,0.648,0,1.433,1.194,1.946l5.426,0.032c-2.73,2.971-5.289,5.975-8.975,6.248c-6.074,3.347,1.126,1.709,1.502,2.631
		c-1.672,4.096-4.812,5.018-7.747,4.709l-0.136,3.039l2.082,1.538l-10.442,14.066l-10.101-14.817l2.15-0.547l-0.239-2.766
		c-3.241,0.376-8.189-2.22-8.565-5.736l3.959-0.309l0.171-1.741c-3.072-0.443-6.723-0.922-9.18-6.521l5.29,0.138
		c-2.252-4.918-9.828-1.911-10.681-9.049l8.429,0.103c-3.003-5.155-10.477-1.024-14.537-9.422l9.145,0.375
		c0.956-1.162-0.068-2.185-0.819-3.038C92.456,98.32,88.395,97.842,84.505,93.846L84.505,93.846z"/>
	<path fill-rule="evenodd" clip-rule="evenodd" fill="#023886" d="M48.469,134.304l1.774-0.887l12.456,0.752
		c0.887,0.067,1.672,0.135,2.354,0.238l-3.31-6.01l1.74-0.853l4.231,7.716l-1.74,0.853l-13.479-0.887l-1.399-0.136l3.753,6.861
		l-1.74,0.887L48.469,134.304z"/>
	<polygon fill-rule="evenodd" clip-rule="evenodd" fill="#023886" points="53.655,144.002 68.671,137.138 69.353,138.539 
		63.177,141.339 65.873,146.768 72.015,143.967 72.697,145.333 57.717,152.162 57.034,150.796 64.098,147.552 61.402,142.159 
		54.338,145.368 	"/>
	<polygon fill-rule="evenodd" clip-rule="evenodd" fill="#023886" points="58.979,154.244 73.892,147.279 77.714,154.79 
		75.974,155.609 72.834,149.463 68.261,151.616 71.196,157.35 69.456,158.169 66.521,152.435 61.437,154.79 64.678,161.175 
		62.938,161.995 	"/>
	<path fill-rule="evenodd" clip-rule="evenodd" fill="#023886" d="M68.705,161.892l1.195,0.784c-0.887,0.889-1.399,1.57-1.502,2.116
		c-0.136,0.514,0,0.957,0.375,1.333c0.273,0.272,0.615,0.443,0.99,0.443c0.375,0.035,0.785-0.035,1.16-0.272
		c0.375-0.206,0.922-0.614,1.604-1.264l8.189-7.647l1.126,1.092l-8.121,7.546c-0.99,0.957-1.844,1.57-2.56,1.911
		c-0.716,0.343-1.399,0.479-2.047,0.376c-0.683-0.103-1.229-0.376-1.74-0.854c-0.751-0.749-0.99-1.568-0.785-2.525
		C66.794,163.974,67.477,162.984,68.705,161.892L68.705,161.892z"/>
	<polygon fill-rule="evenodd" clip-rule="evenodd" fill="#023886" points="73.277,171.041 84.778,159.537 85.938,160.594 
		74.438,172.1 	"/>
	<path fill-rule="evenodd" clip-rule="evenodd" fill="#023886" d="M75.974,173.022l13.854-9.833l1.365,0.99l-6.313,15.467
		l-1.434-1.06l1.979-4.643l-3.992-2.971l-4.129,3.038L75.974,173.022z M82.9,169.916l3.242,2.391l1.809-4.201
		c0.58-1.298,1.058-2.32,1.468-3.107c-0.785,0.717-1.604,1.366-2.457,2.015L82.9,169.916z"/>
	<polygon fill-rule="evenodd" clip-rule="evenodd" fill="#023886" points="87.03,179.476 95.493,165.785 96.892,166.569 
		95.697,180.43 102.353,169.675 103.648,170.427 95.186,184.118 93.787,183.298 94.981,169.472 88.326,180.227 	"/>
	<path fill-rule="evenodd" clip-rule="evenodd" fill="#023886" d="M105.594,180.635l0.717-1.706l4.026,1.501l-2.286,5.496
		c-0.921,0.549-1.809,0.854-2.627,1.024c-0.819,0.138-1.57,0.07-2.252-0.203c-0.922-0.343-1.638-0.991-2.15-1.913
		c-0.512-0.888-0.717-2.015-0.614-3.345c0.103-1.333,0.443-2.733,1.058-4.166c0.581-1.434,1.331-2.73,2.252-3.823
		c0.888-1.092,1.843-1.812,2.799-2.151c0.989-0.309,1.945-0.309,2.9,0.067c0.683,0.24,1.229,0.648,1.638,1.229
		c0.41,0.547,0.648,1.195,0.716,1.947c0.034,0.716-0.034,1.638-0.307,2.695l-1.331,0.035c0.17-0.819,0.239-1.469,0.204-1.979
		c-0.034-0.513-0.17-0.957-0.477-1.367c-0.273-0.409-0.649-0.717-1.126-0.888c-0.58-0.237-1.126-0.272-1.672-0.17
		s-1.024,0.341-1.468,0.684c-0.443,0.341-0.819,0.75-1.194,1.263c-0.614,0.819-1.16,1.741-1.604,2.834
		c-0.546,1.298-0.854,2.457-0.922,3.481c-0.068,0.99,0.068,1.809,0.444,2.458c0.375,0.616,0.887,1.06,1.501,1.298
		c0.546,0.24,1.16,0.273,1.809,0.138c0.648-0.138,1.194-0.343,1.604-0.616l1.161-2.73L105.594,180.635z"/>
	<path fill-rule="evenodd" clip-rule="evenodd" fill="#023886" d="M126.308,171.349h1.57v9.219c0,1.604-0.137,2.868-0.41,3.79
		c-0.272,0.954-0.75,1.706-1.467,2.32c-0.717,0.581-1.672,0.889-2.833,0.889c-1.126,0-2.047-0.272-2.764-0.786
		c-0.716-0.512-1.229-1.263-1.536-2.22c-0.307-0.989-0.443-2.319-0.443-3.993v-9.219h1.603v9.184c0,1.4,0.068,2.425,0.273,3.074
		c0.205,0.648,0.546,1.159,0.989,1.5c0.479,0.376,1.058,0.547,1.741,0.547c1.194,0,2.013-0.342,2.525-1.058
		c0.478-0.684,0.751-2.05,0.751-4.063V171.349z"/>
	<polygon fill-rule="evenodd" clip-rule="evenodd" fill="#023886" points="130.881,186.781 128.97,170.973 130.608,170.767 
		138.389,182.514 136.887,170.086 138.389,169.916 140.333,185.723 138.695,185.894 130.915,174.182 132.417,186.611 	"/>
	<polygon fill-rule="evenodd" clip-rule="evenodd" fill="#023886" points="144.36,182.922 139.07,167.867 140.47,167.388 
		145.759,182.479 	"/>
	<path fill-rule="evenodd" clip-rule="evenodd" fill="#023886" d="M151.526,180.909l-10.204-13.212l1.467-0.547l7.201,9.662
		c0.58,0.785,1.092,1.536,1.569,2.22c-0.17-0.889-0.341-1.743-0.478-2.63l-1.741-11.813l1.399-0.546l2.184,16.319L151.526,180.909z"
		/>
	<polygon fill-rule="evenodd" clip-rule="evenodd" fill="#023886" points="161.047,176.402 151.902,163.122 156.713,160.083 
		157.771,161.654 153.847,164.144 156.645,168.208 160.331,165.887 161.389,167.423 157.737,169.746 160.843,174.285 
		164.938,171.689 165.995,173.26 	"/>
	<path fill-rule="evenodd" clip-rule="evenodd" fill="#023886" d="M168.486,171.213l-9.76-12.906l3.549-2.458
		c0.717-0.479,1.331-0.752,1.877-0.786c0.546-0.033,1.161,0.17,1.843,0.616c0.649,0.443,1.263,0.989,1.775,1.706
		c0.716,0.922,1.091,1.809,1.194,2.698c0.136,0.887-0.137,1.67-0.786,2.39c0.444,0,0.819,0.067,1.126,0.203
		c0.648,0.24,1.399,0.581,2.185,1.095l4.026,2.525l-1.331,0.922l-3.071-1.947c-0.887-0.546-1.604-0.954-2.116-1.228
		c-0.512-0.272-0.888-0.445-1.195-0.479c-0.272-0.067-0.512-0.067-0.716-0.035c-0.171,0.068-0.375,0.171-0.648,0.376l-1.229,0.854
		l4.334,5.702L168.486,171.213z M164.084,163.257l2.287-1.571c0.478-0.341,0.784-0.681,0.955-1.024
		c0.137-0.341,0.171-0.749,0.034-1.228c-0.136-0.443-0.341-0.854-0.683-1.298c-0.443-0.613-0.956-0.989-1.535-1.195
		c-0.58-0.205-1.16-0.102-1.741,0.307l-2.524,1.775L164.084,163.257z"/>
	<path fill-rule="evenodd" clip-rule="evenodd" fill="#023886" d="M174.937,161.14l0.58-1.228c0.716,0.373,1.399,0.614,1.979,0.682
		c0.58,0.067,1.126,0,1.672-0.273c0.546-0.237,0.989-0.613,1.331-1.127c0.307-0.443,0.443-0.922,0.478-1.398
		c0-0.479-0.103-0.922-0.376-1.298c-0.238-0.375-0.58-0.719-1.023-0.991c-0.443-0.273-0.887-0.409-1.331-0.443
		c-0.444-0.033-0.887,0.069-1.365,0.308c-0.307,0.17-0.853,0.581-1.741,1.23c-0.853,0.613-1.501,1.021-2.013,1.194
		c-0.614,0.238-1.263,0.306-1.945,0.203c-0.648-0.103-1.297-0.376-1.945-0.751c-0.717-0.408-1.297-0.955-1.74-1.568
		c-0.444-0.649-0.648-1.298-0.648-1.982c0-0.681,0.205-1.33,0.58-1.946c0.443-0.681,0.99-1.159,1.672-1.468
		c0.682-0.341,1.433-0.408,2.252-0.306c0.818,0.101,1.672,0.408,2.524,0.887l-0.614,1.23c-0.956-0.479-1.741-0.685-2.457-0.581
		c-0.683,0.067-1.229,0.479-1.706,1.16c-0.444,0.716-0.615,1.365-0.41,1.945c0.205,0.582,0.58,1.061,1.16,1.4
		c0.512,0.309,1.024,0.444,1.502,0.409c0.477-0.033,1.194-0.443,2.184-1.228c0.955-0.752,1.706-1.23,2.184-1.436
		c0.716-0.306,1.467-0.408,2.218-0.306c0.716,0.067,1.467,0.376,2.218,0.819s1.365,0.989,1.877,1.673
		c0.478,0.682,0.717,1.365,0.751,2.117c0.034,0.749-0.171,1.433-0.58,2.082c-0.546,0.819-1.161,1.4-1.911,1.706
		c-0.717,0.343-1.57,0.445-2.525,0.308C176.848,162.027,175.892,161.686,174.937,161.14L174.937,161.14z"/>
	<polygon fill-rule="evenodd" clip-rule="evenodd" fill="#023886" points="186.777,153.219 172.035,145.878 172.718,144.616 
		187.46,151.992 	"/>
	<polygon fill-rule="evenodd" clip-rule="evenodd" fill="#023886" points="190.907,146.322 177.7,140.212 176.131,143.386 
		174.356,142.567 178.178,134.954 179.953,135.773 178.349,138.949 191.555,145.025 	"/>
	<path fill-rule="evenodd" clip-rule="evenodd" fill="#023886" d="M100.783,148.236l3.139,0.17l0.239,0.136l-4.812,8.159
		c-0.307,0.547-0.478,0.89-0.512,1.025c-0.035,0.17,0,0.343,0.102,0.479c0.103,0.17,0.376,0.375,0.819,0.613l-0.137,0.273
		l-3.788-2.047l0.171-0.273c0.478,0.238,0.785,0.376,0.99,0.376c0.17,0,0.307-0.035,0.444-0.103
		c0.102-0.104,0.341-0.443,0.683-1.025l3.07-5.19c0.41-0.716,0.649-1.159,0.717-1.397c0.068-0.173,0.068-0.309,0-0.446
		c-0.035-0.103-0.136-0.203-0.239-0.272c-0.205-0.104-0.478-0.171-0.921-0.203L100.783,148.236z"/>
	<path fill-rule="evenodd" clip-rule="evenodd" fill="#023886" d="M113.682,157.931c-0.819-0.819-1.331-1.468-1.536-1.946
		c-0.205-0.444-0.273-0.922-0.205-1.366c0.103-0.716,0.478-1.297,1.126-1.74c0.614-0.443,1.434-0.614,2.389-0.512
		c0.921,0.136,1.639,0.477,2.115,1.022c0.513,0.549,0.718,1.128,0.615,1.743c-0.034,0.408-0.239,0.819-0.615,1.195
		c-0.34,0.408-1.058,0.819-2.115,1.263c0.921,0.887,1.467,1.536,1.74,1.979c0.375,0.615,0.478,1.229,0.41,1.844
		c-0.103,0.751-0.512,1.4-1.195,1.844c-0.683,0.479-1.536,0.648-2.525,0.546c-1.093-0.136-1.877-0.581-2.423-1.298
		c-0.41-0.578-0.581-1.195-0.478-1.809c0.068-0.512,0.307-0.957,0.716-1.4C112.112,158.853,112.76,158.41,113.682,157.931
		L113.682,157.931z M115.114,157.248c0.751-0.512,1.263-0.92,1.468-1.229c0.239-0.308,0.376-0.684,0.444-1.127
		c0.068-0.546-0.035-1.024-0.342-1.4c-0.273-0.341-0.716-0.578-1.297-0.648c-0.545-0.068-1.058,0.035-1.467,0.308
		c-0.376,0.273-0.614,0.614-0.683,1.06c-0.034,0.273,0,0.579,0.102,0.853c0.103,0.308,0.307,0.616,0.546,0.889L115.114,157.248z
		 M114.023,158.307c-0.512,0.308-0.921,0.684-1.194,1.092c-0.307,0.411-0.478,0.887-0.546,1.4c-0.102,0.717,0.035,1.298,0.376,1.741
		c0.341,0.479,0.818,0.752,1.433,0.819c0.614,0.103,1.126,0,1.536-0.308c0.41-0.273,0.648-0.649,0.682-1.125
		c0.068-0.376,0-0.752-0.17-1.096C115.832,160.218,115.114,159.364,114.023,158.307L114.023,158.307z"/>
	<path fill-rule="evenodd" clip-rule="evenodd" fill="#023886" d="M127.57,164.247l-0.068-0.272
		c0.716-0.171,1.365-0.444,1.945-0.853c0.546-0.445,1.058-1.095,1.468-1.981c0.443-0.887,0.683-1.809,0.75-2.799
		c-0.785,0.717-1.536,1.125-2.252,1.229c-0.784,0.17-1.535-0.033-2.218-0.512s-1.126-1.229-1.297-2.219
		c-0.205-0.957-0.068-1.845,0.341-2.698c0.512-1.024,1.331-1.639,2.457-1.845c0.922-0.135,1.775,0.07,2.594,0.72
		c0.99,0.749,1.603,1.809,1.876,3.139c0.239,1.23,0.137,2.425-0.273,3.585c-0.409,1.127-1.126,2.152-2.081,3.039
		c-0.785,0.751-1.706,1.195-2.765,1.4L127.57,164.247z M131.666,157.726c-0.035-0.717-0.103-1.298-0.17-1.707
		c-0.103-0.513-0.308-1.059-0.614-1.638c-0.273-0.546-0.648-0.957-1.024-1.23c-0.41-0.272-0.819-0.341-1.263-0.272
		c-0.512,0.067-0.887,0.375-1.194,0.854c-0.273,0.512-0.341,1.195-0.17,2.015c0.205,1.127,0.648,1.979,1.263,2.525
		c0.443,0.411,0.921,0.546,1.467,0.445c0.239-0.034,0.545-0.138,0.887-0.343C131.153,158.205,131.427,157.999,131.666,157.726
		L131.666,157.726z"/>
	<path fill-rule="evenodd" clip-rule="evenodd" fill="#023886" d="M139.583,151.172l6.074-1.266l0.068,0.309l-1.331,11.538
		l-0.922,0.206l1.16-10.481l-3.105,0.648c-0.648,0.138-1.058,0.309-1.296,0.514c-0.41,0.341-0.717,0.784-0.888,1.365l-0.239-0.035
		L139.583,151.172z"/>
	<path fill-rule="evenodd" clip-rule="evenodd" fill="#023886" d="M49.458,85.208c0.341,1.298,1.639,3.244,3.822,2.766l1.569,1.059
		c0.307-1.059,1.331-2.048,0.922-3.278l-1.604-1.33C52.564,84.663,50.755,84.595,49.458,85.208L49.458,85.208z"/>
	<path fill-rule="evenodd" clip-rule="evenodd" fill="#023886" d="M58.672,94.291c-0.955-0.342-2.252-0.82-3.003-1.774
		c0.205-1.537,2.048-1.06,3.379-1.162c0.683,0.034,1.398,0,1.74,0.547c-0.034,0.308,0.341,1.229,0.409,1.878
		c-0.443,0.443-0.854,0.989-1.365,1.263L58.672,94.291z"/>
	<path fill-rule="evenodd" clip-rule="evenodd" fill="#023886" d="M62.528,93.608c0.99,4.337,3.481,9.149,3.003,12.975
		c2.798,1.843,4.641,1.773,5.699,1.468l0.171-1.332c-3.515-2.355-5.221-6.862-5.528-8.126l2.662-1.264
		c0.137-1.501-0.205-3.585,0.375-4.507c1.468,0.581,1.673,1.503,2.287,2.562c3.207-1.195-1.945-4.438-3.481-6.794
		c0.137-1.674,0.171-3.176,0.239-4.78c1.672,0.717,3.412,3.005,5.153,4.507c1.228-1.57-1.399-3.381-2.082-5.087
		c-0.307-1.024,0.375-1.298,1.331-1.366l6.654,5.565c0.717-3.38-4.3-6.419-6.416-9.628c0.239-0.751-0.035-1.673-2.218-1.161
		c-1.331,0.102-2.491,0.683-0.443,3.346c-1.092,2.117-2.082-0.479-3.14-0.751c0.614-2.525,1.672-4.916-0.375-5.463
		c0.204,1.195-0.035,2.356-0.888,3.211l-2.594,0.954c0,0.751,2.491,2.39,3.378,3.723c0.41,1.638,0.273,3.174-0.034,4.369
		c-1.809,0.684-1.434-1.604-2.048-2.525c-2.014-1.333-4.368-1.161-5.392-0.444l4.095,4.063c-0.068,0.854-1.263,2.254-0.102,2.321
		c0.716,0.479,1.092-0.376,1.638-0.784l1.535,1.023c0.137,2.049-0.103,3.927-1.024,5.463C64.098,95.828,63.518,93.881,62.528,93.608
		L62.528,93.608z"/>
	<path fill-rule="evenodd" clip-rule="evenodd" fill="#023886" d="M100.783,42.702c-1.604,0.615-0.854,2.767-0.683,3.517
		c-0.034,0.854-0.341,1.775-0.136,2.595c1.126-0.136,2.116-0.033,3.276,0.138C105.185,46.458,102.181,44.102,100.783,42.702
		L100.783,42.702z"/>
	<path fill-rule="evenodd" clip-rule="evenodd" fill="#023886" d="M98.428,52.091c-0.102,0.034-1.501,0.41-1.024,2.424
		c0.239,1.195,0.171,1.844,0.137,2.766c1.093,0.137,2.321-0.376,3.14-1.092c0-0.685-0.034-1.365-0.409-2.084
		C99.656,53.457,99.076,52.671,98.428,52.091L98.428,52.091z"/>
	<path fill-rule="evenodd" clip-rule="evenodd" fill="#023886" d="M108.393,49.292c-1.058,2.082,0.307,3.518,1.023,3.823
		l1.126,0.205c-0.137,0.922,0.034,1.776,0.103,2.561l0.512-0.103c0.614-0.887,1.126-0.989,1.877-1.468l0.443-0.922l1.774-2.047
		c0.513-1.128,0.171-2.562-1.604-3.723C111.907,48.2,110.474,48.984,108.393,49.292L108.393,49.292z"/>
	<path fill-rule="evenodd" clip-rule="evenodd" fill="#023886" d="M107.573,57.929c-0.068,2.082,1.74,2.8,2.628,3.823
		c1.467-1.399,3.174-2.594,4.163-4.302c0.375-0.479,0.818-1.024,0.58-1.946C112.453,55.71,110.27,57.657,107.573,57.929
		L107.573,57.929z"/>
	<path fill-rule="evenodd" clip-rule="evenodd" fill="#023886" d="M101.533,57.998c-2.696,4.336-5.665,8.604-9.453,10.652
		c-1.467,2.492,1.296,3.857,1.876,4.371C96.824,68.617,100.373,63.188,101.533,57.998L101.533,57.998z"/>
	<path fill-rule="evenodd" clip-rule="evenodd" fill="#023886" d="M154.7,48.029c-1.809,1.127-2.594,7.102-3.822,10.687
		c-0.785,2.15-1.604,1.979-2.491,2.048c-2.56,0.239-6.415,1.434-8.224,1.059l-0.956-0.58c-2.184,1.911,0.308,3.175,0.819,4.404
		l1.263,0.238c2.49-0.955,4.402-2.116,6.381-2.288c0.034,1.913-3.071,3.585-4.914,5.088c4.778-0.376,6.654-3.142,8.395-6.247
		c1.399-1.128,3.14-1.674,4.573-2.221c0.41-0.375,1.161-0.443,0.717-1.74c-0.307-0.171-0.546-0.376-0.854-0.206
		c-0.341,0.546-0.785,0.889-1.296,1.23c-0.444,0.103-1.263,0.409-0.956-0.785c0.512-0.752,0.888-1.604,1.365-2.356l1.501-2.049
		C156.372,52.876,156.133,49.156,154.7,48.029L154.7,48.029z"/>
	<path fill-rule="evenodd" clip-rule="evenodd" fill="#023886" d="M153.369,66.738c-1.126,1.674,0.103,3.209-0.409,4.814
		c-0.615,1.365,1.058,1.058,1.569,1.775c0.58,0.137,1.297,0.137,2.082-0.58C157.191,70.118,156.031,68.036,153.369,66.738
		L153.369,66.738z"/>
	<path fill-rule="evenodd" clip-rule="evenodd" fill="#023886" d="M176.711,81.453c-0.751-0.102-1.945,0.41-2.969,0.82
		c-1.024,0.308-0.683,1.297-0.888,1.844c0.751,1.502,2.048,0.785,3.208-0.238C176.608,82.819,177.086,82.067,176.711,81.453
		L176.711,81.453z"/>
	<path fill-rule="evenodd" clip-rule="evenodd" fill="#023886" d="M167.531,88.385c-1.127-0.89-1.638-0.581-1.809,0.408
		c-0.102,2.629,1.467,3.381,3.003,3.482c1.263,0.444,2.525,0.889,3.583,1.468c0.068,0.581-1.433,1.605-2.184,2.22
		c-1.228,0.308-1.57-0.819-2.389-1.229c-0.716-0.272-1.023-0.102-1.092,0.58c1.023,1.571,1.16,4.099,3.037,4.713
		c2.047-1.639,4.095-3.346,6.381-4.678l1.467,0.649c0.581-0.035,1.093-0.581,0.819-1.093c-0.443-0.138-0.785-0.684-0.956-0.99
		l-0.034-1.195l-0.785-0.956c-0.512,0.206-1.434,1.024-1.877,1.093c-1.263-0.614-2.525-1.469-3.788-2.185
		C169.681,89.988,168.657,89.272,167.531,88.385L167.531,88.385z"/>
	<path fill-rule="evenodd" clip-rule="evenodd" fill="#023886" d="M183.263,79.882c-1.16-0.238-1.979,1.059-3.174,2.527
		l-2.491,2.082c-0.682,0.717-1.911,1.365-1.808,2.391c1.126,0.136,2.013,0.308,3.31,0.34c1.229,1.163,2.081,1.537,3.378,1.606
		c0.41,0.819-0.171,1.263-0.716,1.774c-3.174-1.398-6.279-3.072-9.419-4.746c-0.853-0.033-0.956,0.443-1.126,0.854
		c0.682,0.989,1.263,2.39,1.706,3.209l2.014,0.376c0.307-0.273,5.494,1.092,7.575,2.39c-0.478,0.99-4.333-0.99-5.084-0.376
		c0.989,0.99,2.457,0.684,3.48,1.571c1.262,0.376,2.729,1.229,3.856,1.433c0.887-0.648,1.638-2.184,2.32-2.32
		c1.707,0.033,3.788,0.818,5.255-0.034c0.137-0.785,0.375-1.741,0.546-2.22c-0.272-0.785-1.706-1.331-1.877-1.877
		c-0.17-0.205,0.137-0.786,0.546-0.786c1.126,0.103,2.287,0.137,3.276-0.067c0.375,0.067,1.979-2.492,1.023-3.518
		c-1.809,0.443-3.583,0.614-5.494,1.195c-0.887,0.137-1.194-0.443-1.604-0.854c-0.887-0.067-1.433,0.342-1.263,0.786
		c-0.955,0.751-1.911,1.093-2.73,1.058l-0.614-0.956c-1.161-0.374-1.399,0.889-2.082,1.367c-0.375-0.479-1.911,0.477-2.252-0.376
		C180.977,84.868,183.468,82.102,183.263,79.882L183.263,79.882z M185.208,88.691c0.443-0.068,0.853-0.58,1.229-0.887
		c0.648,0.033,1.331,0.237,1.945,0.067c0.272,0.888,1.364,1.741,0.785,2.629c-1.263,0.649-2.662,0.58-3.958,0.854
		c-0.341-0.579,1.16-0.512,1.672-0.751c0.308-0.307,0.478-0.648,0.648-1.059c-0.512-0.375-0.717-0.648-1.911-0.308
		C185.378,89.272,184.73,88.759,185.208,88.691L185.208,88.691z"/>
	<path fill-rule="evenodd" clip-rule="evenodd" fill="#023886" d="M122.315,30.683c45.387,0,82.412,37.044,82.412,82.453
		c0,45.408-37.025,82.453-82.412,82.453c-45.42,0-82.413-37.045-82.413-82.453C39.903,67.727,76.895,30.683,122.315,30.683
		L122.315,30.683z M122.315,32.392c44.431,0,80.706,36.292,80.706,80.744c0,44.486-36.275,80.746-80.706,80.746
		c-44.465,0-80.706-36.26-80.706-80.746C41.609,68.684,77.85,32.392,122.315,32.392L122.315,32.392z"/>
	<path fill-rule="evenodd" clip-rule="evenodd" fill="#023886" d="M122.315,67.49c25.116,0,45.625,20.52,45.625,45.646
		c0,12.668-5.221,24.172-13.582,32.437h-1.365c8.6-8.126,13.991-19.668,13.991-32.437c0-24.616-20.065-44.691-44.669-44.691
		c-24.639,0-44.704,20.075-44.704,44.691c0,12.769,5.392,24.311,13.991,32.437h-1.364c-8.361-8.265-13.583-19.769-13.583-32.437
		C76.655,88.009,97.165,67.49,122.315,67.49L122.315,67.49z"/>
	<path fill-rule="evenodd" clip-rule="evenodd" fill="#023886" d="M195.718,151.548l-6.791-1.744l-10.374,1.57l0.478-1.67
		l5.392-0.787c1.023-0.136,2.013-0.238,3.037-0.341c-0.784-0.514-1.604-1.127-2.525-1.844l-4.163-3.209l0.443-1.606l8.087,6.521
		l6.791,1.741L195.718,151.548z"/>
	<path fill-rule="evenodd" clip-rule="evenodd" fill="#023886" d="M253.629,68.65c0,0-2.9-4.302-4.812,0.478
		c-1.912,4.815-1.74,6.419,0.478,10.55c2.252,4.166,5.46,1.605,7.2-2.082C258.27,73.943,253.629,68.65,253.629,68.65L253.629,68.65z
		 M249.159,86.233c0,0-1.775-0.956-2.082-2.868c-0.342-1.912-4.505,2.562-4.642,4.645c-0.171,2.082,0.478,3.209,2.082,5.599
		c1.57,2.391-0.17,4.165-0.17,4.165s-1.126,2.867,3.993,0.785s5.904-6.727,4.163-8.945
		C250.729,87.361,249.159,86.233,249.159,86.233L249.159,86.233z M248.817,102.417c0,0-7.985,11.677-11.979,15.194
		c-3.993,3.515-4.333,7.202-3.207,12.152c1.126,4.952,6.722,5.907,7.985-0.646c1.297-6.557,4.641-12.155,6.416-15.364
		c1.74-3.177,4.163-0.786,4.163-0.786s4.471,0,6.552-3.346c2.082-3.38,2.082,1.57,1.092,2.868c-0.956,1.264-3.993,4.951-0.137,4.951
		c3.822,0,7.2-4.304,8.77-9.288l0.513-4.473c0,0,5.084-6.555,8.292-8.945l0.171,5.601c0,0-4.334,5.428,0.478,6.384
		c4.812,0.957,6.723-2.867,8.156-8.16h1.604l0.137,17.925c0,0,7.063,0,8.497-10.242l-0.171-12.155c0,0,4.164-2.867,4.471-5.599
		c0.341-2.732-2.867-1.913-2.867-1.913s-1.433-0.647-1.433-2.252c0,0-2.082-1.264-3.992,1.433c-1.945,2.732-2.901,3.688-4.334,3.209
		c-1.433-0.477,0.341-2.218,1.604-2.867c1.263-0.648,2.867-3.687,5.119-3.994c2.252-0.341,3.208-0.649,3.208-2.73
		c0-2.085-0.479-4.475-5.12-2.085c-4.641,2.391-6.074,2.085-7.371-0.17c-1.263-2.22-4.164-1.741-4.471,1.776
		c-0.307,3.517-0.956,7.681-0.956,7.681l-5.938,4.166c0,0-3.993,0.614-2.047-1.127c1.911-1.775,3.344-2.391,3.344-2.391l0.308-2.081
		c0,0-3.515-3.039-4.3-5.6c-0.819-2.56-5.427-3.517-5.938,1.263c-0.478,4.814-0.615,6.896-3.037,8.638
		c-2.389,1.776-7.336,4.166-2.696,5.6c4.641,1.435,1.74,2.731,0,4.645c-1.775,1.911-7.508,6.247-8.805,4.335 M348.496,66.464
		c0,0-2.081-2.73-3.515,1.606c-1.434,4.335,0.614,7.032,0,9.764c-0.647,2.696,5.597,1.741,7.679,0.171
		c2.082-1.605,2.082-5.771-0.649-8.023C349.281,67.762,348.496,66.464,348.496,66.464L348.496,66.464z M338.736,84.389
		c-2.252,1.606-3.617,4.542-2.559,7.341c1.057,2.834,2.184,1.878,2.559,5.599c0,0,3.345,2.084,6.245-3.038
		c2.867-5.086-2.253-7.99-2.253-7.99S340.989,82.785,338.736,84.389L338.736,84.389z M349.452,98.626c0,0,0-4.473-3.379,1.264
		c-3.345,5.771-16.142,18.744-22.999,21.611c-6.895,2.868,0.784,8.637,0.784,8.637s3.378,4.645,7.985-1.603
		c4.641-6.248,12.012-15.364,17.301-27.826C349.315,99.788,349.452,98.626,349.452,98.626L349.452,98.626z M365.423,81.521
		c0,0-4.607,1.57-1.911,4.951c2.73,3.346,2.73,5.6,6.416,3.824c3.65-1.741,3.65-0.479,2.865,1.298
		c-0.784,1.741-3.207,5.12-2.729,7.202c0,0,5.938-0.477,7.541-3.037c1.571-2.562,7.03-7.853,7.338-11.37
		c0.308-3.517-2.218-8.159-6.859-6.896C373.442,78.791,365.423,81.521,365.423,81.521L365.423,81.521z M362.078,102.451
		c0,0-3.821,1.774-0.648,5.121c3.208,3.38,7.201,4.507,11.842,1.605c4.642-2.868,5.596-4.952,5.768-10.072
		c0,0-2.424-0.649-5.938,0.648C369.586,101.016,362.078,102.451,362.078,102.451L362.078,102.451z M415.825,99.651
		c-3.686-0.479-5.118-1.741-4.333,4.644c0,0,1.126,3.857,8.463,5.429c1.979,0.444,3.719-0.343,5.425-0.786
		c1.741-0.409,3.311-1.159,4.607-1.911c2.286-1.333,3.891-2.083,3.891-2.083s2.866-0.648,2.389,0.956
		c-0.479,1.605-3.174,5.907-10.374,8.638s-1.297,4.645,1.263,4.166c2.559-0.479,12.489-1.436,16.96-12.634
		c4.47-11.198,8.94-9.936,8.94-9.936s8.326-3.823,8.975-8.329c0.649-4.474-3.378-2.22-5.118-1.093
		c-1.774,1.093-5.289,2.561-6.245,3.039c0,0,0.956-4.645,2.389-7.376c1.468-2.73,3.208-10.242-2.082-15.363
		c-5.255-5.121-5.903-2.391-7.166,2.561c-1.297,4.984,1.093,9.594-0.818,17.754s-1.741,7.204-7.029,9.116
		C430.67,98.388,423.571,100.675,415.825,99.651L415.825,99.651z M459.472,107.982c0,0-4.948-2.867-6.416,0.307
		c-1.433,3.209,1.468,7.375,2.73,9.287c1.297,1.911-1.911,4.645,1.604,4.645s8.805-1.436,6.381-9.117
		C462.68,109.586,459.472,107.982,459.472,107.982L459.472,107.982z M497.01,84.526c-0.547,0.103-3.516,1.126-3.209,5.429
		c0.308,4.336,2.729,7.853,4.642,7.203c1.911-0.613,3.515-2.696,2.866-7.988c-0.238-1.263-0.854-1.878-1.434-2.596
		C498.749,85.208,497.556,84.424,497.01,84.526L497.01,84.526z M503.22,70.766c-0.785-0.306-3.515-0.306-2.56,5.942
		c0.99,6.213,2.9,7.646,3.072,12.631c0.137,4.951,4.777,2.869,5.596,0.479c0.785-2.39,6.211-2.561,6.211-2.561
		s4.812-0.479,1.91,1.605c-2.865,2.082-18.7,12.153-18.7,12.153s-6.552,3.688,1.297,4.78c7.815,1.127,14.367-4.951,14.367-4.951
		s2.729-2.56,1.604,1.298c-1.093,3.823-9.111,7.341-9.111,7.341s-7.985,3.038-13.274,4.336c-5.256,1.263-3.515,0.957-2.219,4.131
		c1.263,3.209,6.859,5.291,10.852,2.253c3.994-3.037,12.32-5.77,12.149-2.391c-0.137,3.347-0.785,4.166-5.903,5.737
		c-5.119,1.605-2.731,2.561,3.515,4.645c6.244,2.082,9.93-0.309,9.93-4.304c0-3.993,0.137-11.369,0.137-11.369
		s2.252-1.741,3.685-2.39c1.435-0.648,2.561-7.853-2.08-8.638c0,0,3.036-5.429,10.066-7.683c0,0,2.73-0.785,2.73-5.121
		s-5.119-2.252-0.956-7.032c4.163-4.815,9.76-9.595,3.345-15.673c0,0-0.615-1.468-5.733-2.081c0,0,4.948-7.034-1.774-9.457
		c0,0-1.263-1.265-3.208,2.73c-1.911,3.995-3.173,3.824-3.344,4.95c-0.171,1.127-1.604,1.127-3.821,0.172
		c-2.254-0.956-6.076,0-6.076,4.301c0,0-0.17,1.298,1.57,2.424c1.774,1.093,2.9,1.741-0.137,4.473
		c-3.036,2.732-4.504-1.604-4.641,4.165c0,0,3.515,2.698,1.126,3.996c-2.423,1.263-2.081-0.342-2.081-2.083
		C510.762,81.317,508.646,72.952,503.22,70.766L503.22,70.766z M530.246,73.976c0,0-3.821-2.868-4.128,1.741
		c0,0,0.136,1.775,1.263,2.732c1.126,0.954,1.262,2.56,1.604,0c0,0,0.785-1.128,1.74-1.913
		C531.715,75.717,530.246,73.976,530.246,73.976L530.246,73.976z"/>
	<g>
		<path fill="#023886" d="M224.915,171.208v-3.428l9.879-12.207h-8.763v-3.184h13.767v2.952l-10.303,12.695h10.7v3.171H224.915z"/>
		<path fill="#023886" d="M244.447,171.208V152.39h3.798v7.406h7.442v-7.406h3.797v18.818h-3.797v-8.229h-7.442v8.229H244.447z"/>
		<path fill="#023886" d="M264.724,171.208V152.39h13.947v3.184h-10.149v4.172h9.443v3.171h-9.443v5.121h10.508v3.171H264.724z"/>
		<path fill="#023886" d="M290.614,152.39h3.785v11.912c0,1.558-0.137,2.756-0.411,3.595c-0.368,1.095-1.035,1.975-2.001,2.638
			c-0.967,0.663-2.241,0.995-3.823,0.995c-1.856,0-3.285-0.521-4.286-1.56c-1-1.04-1.505-2.565-1.514-4.577l3.58-0.41
			c0.042,1.078,0.201,1.84,0.475,2.285c0.411,0.676,1.035,1.014,1.873,1.014c0.847,0,1.446-0.241,1.796-0.726
			c0.351-0.483,0.526-1.486,0.526-3.01V152.39z"/>
		<path fill="#023886" d="M300.428,171.208V152.39h3.797v18.818H300.428z"/>
		<path fill="#023886" d="M325.855,171.208h-4.131l-1.643-4.274h-7.52l-1.552,4.274h-4.028l7.326-18.818h4.016L325.855,171.208z
			 M318.863,163.763l-2.592-6.983l-2.541,6.983H318.863z"/>
		<path fill="#023886" d="M329.223,171.208V152.39h3.695l7.697,12.567V152.39h3.528v18.818h-3.811l-7.583-12.271v12.271H329.223z"/>
		<path fill="#023886" d="M358.224,164.29v-3.171h8.186v7.497c-0.796,0.77-1.948,1.448-3.458,2.034s-3.039,0.88-4.586,0.88
			c-1.969,0-3.684-0.413-5.146-1.239c-1.463-0.825-2.562-2.007-3.298-3.543c-0.735-1.536-1.104-3.207-1.104-5.013
			c0-1.959,0.411-3.701,1.232-5.225c0.82-1.522,2.022-2.69,3.605-3.504c1.205-0.625,2.707-0.938,4.503-0.938
			c2.335,0,4.159,0.49,5.472,1.47c1.313,0.98,2.158,2.335,2.535,4.063l-3.772,0.706c-0.266-0.925-0.764-1.654-1.495-2.189
			c-0.73-0.534-1.645-0.802-2.739-0.802c-1.659,0-2.979,0.526-3.958,1.579s-1.469,2.614-1.469,4.686
			c0,2.233,0.496,3.908,1.488,5.025c0.992,1.116,2.292,1.675,3.9,1.675c0.795,0,1.593-0.156,2.393-0.469s1.486-0.69,2.059-1.136
			v-2.388H358.224z"/>
		<path fill="#023886" d="M376.924,152.39h3.798v10.192c0,1.617,0.048,2.666,0.142,3.145c0.162,0.771,0.549,1.389,1.16,1.855
			c0.612,0.466,1.448,0.699,2.51,0.699c1.077,0,1.89-0.22,2.438-0.661c0.547-0.44,0.876-0.981,0.987-1.624
			c0.111-0.642,0.167-1.707,0.167-3.196v-10.41h3.798v9.884c0,2.26-0.103,3.855-0.308,4.788c-0.205,0.934-0.584,1.721-1.136,2.362
			s-1.29,1.153-2.214,1.534s-2.129,0.571-3.617,0.571c-1.797,0-3.158-0.208-4.087-0.623s-1.661-0.954-2.2-1.617
			s-0.895-1.358-1.064-2.086c-0.249-1.078-0.373-2.67-0.373-4.775V152.39z"/>
		<path fill="#023886" d="M397.277,171.208V152.39h3.695l7.698,12.567V152.39h3.528v18.818h-3.811l-7.582-12.271v12.271H397.277z"/>
		<path fill="#023886" d="M417.414,171.208V152.39h3.798v18.818H417.414z"/>
		<path fill="#023886" d="M430.68,171.208l-6.723-18.818h4.117l4.761,13.928l4.606-13.928h4.028l-6.735,18.818H430.68z"/>
		<path fill="#023886" d="M444.983,171.208V152.39h13.946v3.184h-10.148v4.172h9.443v3.171h-9.443v5.121h10.508v3.171H444.983z"/>
		<path fill="#023886" d="M464.099,171.208V152.39h7.993c2.01,0,3.471,0.169,4.382,0.507s1.64,0.939,2.188,1.804
			s0.821,1.853,0.821,2.965c0,1.412-0.415,2.578-1.244,3.498c-0.83,0.92-2.07,1.5-3.721,1.739c0.82,0.479,1.498,1.006,2.033,1.579
			c0.534,0.573,1.255,1.592,2.162,3.056l2.297,3.671h-4.543l-2.745-4.095c-0.976-1.464-1.643-2.386-2.001-2.767
			c-0.359-0.381-0.74-0.642-1.143-0.783c-0.402-0.141-1.039-0.212-1.912-0.212h-0.77v7.856H464.099z M467.896,160.349h2.811
			c1.821,0,2.959-0.077,3.412-0.231s0.809-0.419,1.064-0.796c0.258-0.376,0.386-0.847,0.386-1.412c0-0.633-0.169-1.145-0.507-1.534
			c-0.338-0.389-0.814-0.635-1.431-0.737c-0.308-0.043-1.231-0.064-2.771-0.064h-2.964V160.349z"/>
		<path fill="#023886" d="M483.414,165.085l3.695-0.359c0.222,1.241,0.674,2.152,1.354,2.734s1.598,0.873,2.752,0.873
			c1.223,0,2.145-0.259,2.765-0.777c0.62-0.518,0.931-1.123,0.931-1.816c0-0.444-0.131-0.823-0.392-1.136s-0.717-0.584-1.366-0.815
			c-0.445-0.153-1.459-0.428-3.041-0.821c-2.036-0.505-3.465-1.125-4.285-1.861c-1.154-1.035-1.732-2.298-1.732-3.786
			c0-0.959,0.271-1.855,0.814-2.689c0.543-0.835,1.326-1.47,2.348-1.906c1.022-0.437,2.256-0.655,3.702-0.655
			c2.36,0,4.138,0.519,5.331,1.554s1.82,2.418,1.879,4.146l-3.797,0.166c-0.162-0.967-0.512-1.662-1.046-2.086
			c-0.534-0.423-1.337-0.635-2.405-0.635c-1.104,0-1.968,0.227-2.592,0.68c-0.402,0.291-0.604,0.681-0.604,1.169
			c0,0.444,0.188,0.825,0.564,1.142c0.479,0.402,1.643,0.822,3.49,1.259s3.214,0.888,4.1,1.354c0.885,0.467,1.578,1.104,2.078,1.913
			s0.75,1.808,0.75,2.997c0,1.078-0.299,2.089-0.897,3.029c-0.599,0.941-1.446,1.642-2.54,2.1c-1.096,0.457-2.46,0.687-4.094,0.687
			c-2.377,0-4.203-0.55-5.479-1.649C484.423,168.793,483.662,167.191,483.414,165.085z"/>
		<path fill="#023886" d="M503.363,171.208V152.39h3.798v18.818H503.363z"/>
		<path fill="#023886" d="M516.064,171.208v-15.635h-5.582v-3.184h14.947v3.184h-5.568v15.635H516.064z"/>
		<path fill="#023886" d="M534.66,171.208v-7.92l-6.891-10.898h4.453l4.426,7.445l4.337-7.445h4.375l-6.915,10.924v7.895H534.66z"/>
	</g>
</g>
</svg>
